<svg width="190" height="119" viewBox="0 0 190 119" fill="none" xmlns="http://www.w3.org/2000/svg">
<rect width="190" height="118.75" fill="#E7F4E4"/>
<rect x="4.75" y="30.875" width="180.5" height="83.125" rx="4.5125" fill="white"/>
<rect x="109.368" y="38.1186" width="68.6375" height="68.6375" fill="#FAFAFA" stroke="#CCCCCC" stroke-width="0.2375"/>
<rect x="113.267" y="42.0172" width="12.7578" height="12.7578" stroke="#CCCCCC" stroke-width="0.2375"/>
<rect x="117.479" y="46.2301" width="4.33176" height="4.33176" fill="#CCCCCC"/>
<rect x="161.348" y="42.0172" width="12.7578" height="12.7578" stroke="#CCCCCC" stroke-width="0.2375"/>
<rect x="165.562" y="46.2301" width="4.33176" height="4.33176" fill="#CCCCCC"/>
<rect x="113.267" y="90.0997" width="12.7578" height="12.7578" stroke="#CCCCCC" stroke-width="0.2375"/>
<rect x="117.479" y="94.3126" width="4.33176" height="4.33176" fill="#CCCCCC"/>
<rect x="4.75098" y="3.5625" width="9.73096" height="23.7501" fill="#2561A1"/>
<rect x="14.4814" y="3.5625" width="14.0192" height="23.7501" fill="#DC514D"/>
<rect x="14.4873" y="48.4501" width="19.6924" height="4.64017" fill="#EEEEEE"/>
<rect x="14.4873" y="66.558" width="30.6704" height="4.64017" fill="#EEEEEE"/>
<rect x="14.4873" y="84.666" width="46.0622" height="4.64017" fill="#EEEEEE"/>
<rect x="14.4873" y="54.7878" width="85.3339" height="5.65874" fill="#C4C4C4"/>
<rect x="14.4873" y="72.8959" width="56.2479" height="5.65874" fill="#C4C4C4"/>
<rect x="14.4873" y="91.0038" width="34.292" height="5.65874" fill="#C4C4C4"/>
<rect x="34.2002" y="5.69995" width="65.55" height="10.6875" fill="#BCC5BA"/>
<rect x="34.2002" y="19.7125" width="68.6375" height="5.7" fill="#BCC5BA"/>
</svg>
