<svg width="260" height="331" viewBox="0 0 260 331" fill="none" xmlns="http://www.w3.org/2000/svg">
<rect width="260" height="331" fill="white"/>
<mask id="mask0_104_169" style="mask-type:alpha" maskUnits="userSpaceOnUse" x="0" y="325" width="260" height="6">
<rect y="325" width="260" height="6" fill="#C4C4C4"/>
</mask>
<g mask="url(#mask0_104_169)">
<rect x="57.5029" y="326.55" width="51.4068" height="25.3739" fill="#2561A1"/>
<rect x="108.91" y="326.55" width="92.9278" height="25.3739" fill="#DC514D"/>
</g>
<rect x="13" y="14" width="235" height="104" rx="6" fill="#E7F4E4"/>
<rect x="22" y="49" width="219" height="64" rx="3.69231" fill="white"/>
<rect x="214" y="21" width="27" height="18" rx="2.19574" fill="white"/>
<rect x="23" y="21" width="7.375" height="18" fill="#2561A1"/>
<rect x="30.375" y="21" width="10.625" height="18" fill="#DC514D"/>
<rect x="218" y="25" width="19" height="4" fill="#8FADE6"/>
<rect x="218" y="30" width="19" height="4" fill="#8FADE6"/>
<rect x="44" y="23" width="157" height="6" fill="#BCC5BA"/>
<rect x="44" y="32" width="40" height="2" fill="#BCC5BA"/>
<rect x="44" y="37" width="39" height="2" fill="#BCC5BA"/>
<rect x="29" y="55" width="39" height="4" fill="#DDDDDD"/>
<rect x="29" y="83" width="54" height="4" fill="#DDDDDD"/>
<rect x="29" y="69" width="54" height="4" fill="#DDDDDD"/>
<rect x="29" y="97" width="56" height="4" fill="#DDDDDD"/>
<rect x="15" y="143" width="79" height="4" fill="#EEEEEE"/>
<rect x="15" y="207" width="79" height="4" fill="#EEEEEE"/>
<rect x="15" y="270" width="79" height="4" fill="#EEEEEE"/>
<rect x="15" y="149" width="69" height="6" fill="#CCCCCC"/>
<rect x="15" y="213" width="69" height="6" fill="#CCCCCC"/>
<rect x="15" y="276" width="69" height="6" fill="#CCCCCC"/>
<rect x="160" y="149" width="88" height="6" fill="#CCCCCC"/>
<rect x="160" y="213" width="88" height="6" fill="#CCCCCC"/>
<rect x="160" y="276" width="88" height="6" fill="#CCCCCC"/>
<rect x="160" y="168" width="88" height="6" fill="#CCCCCC"/>
<rect x="160" y="232" width="88" height="6" fill="#CCCCCC"/>
<rect x="160" y="295" width="88" height="6" fill="#CCCCCC"/>
<rect x="15" y="168" width="36" height="6" fill="#CCCCCC"/>
<rect x="15" y="232" width="36" height="6" fill="#CCCCCC"/>
<rect x="15" y="295" width="36" height="6" fill="#CCCCCC"/>
<rect x="167" y="143" width="81" height="4" fill="#EEEEEE"/>
<rect x="167" y="207" width="81" height="4" fill="#EEEEEE"/>
<rect x="167" y="270" width="81" height="4" fill="#EEEEEE"/>
<rect x="15" y="162" width="62" height="4" fill="#EEEEEE"/>
<rect x="15" y="226" width="62" height="4" fill="#EEEEEE"/>
<rect x="15" y="289" width="62" height="4" fill="#EEEEEE"/>
<rect x="163" y="161" width="85" height="4" fill="#EEEEEE"/>
<rect x="163" y="225" width="85" height="4" fill="#EEEEEE"/>
<rect x="163" y="288" width="85" height="4" fill="#EEEEEE"/>
<rect x="29" y="60" width="44" height="6" fill="#C2D7BD"/>
<rect x="29" y="88" width="36" height="6" fill="#C2D7BD"/>
<rect x="29" y="74" width="50" height="6" fill="#C2D7BD"/>
<rect x="29" y="102" width="26" height="6" fill="#C2D7BD"/>
<rect x="175.5" y="55.5" width="52" height="52" fill="#FAFAFA" stroke="#CCCCCC"/>
<rect x="178.5" y="58.5" width="9" height="9" stroke="#CCCCCC"/>
<rect x="181.333" y="61.3334" width="3.33333" height="3.33333" fill="#CCCCCC"/>
<rect x="215.5" y="58.5" width="9" height="9" stroke="#CCCCCC"/>
<rect x="218.333" y="61.3334" width="3.33333" height="3.33333" fill="#CCCCCC"/>
<rect x="178.5" y="95.5" width="9" height="9" stroke="#CCCCCC"/>
<rect x="181.333" y="98.3334" width="3.33333" height="3.33333" fill="#CCCCCC"/>
<rect x="232" y="55" width="5" height="53" fill="#EEEEEE"/>
<rect x="15" y="125" width="42" height="10" rx="5" fill="#9EC5E4"/>
<rect x="15" y="189" width="42" height="10" rx="5" fill="#9EC5E4"/>
<rect x="15" y="252" width="42" height="10" rx="5" fill="#9EC5E4"/>
<rect x="15" y="181" width="233" height="1" fill="#DDDDDD"/>
<rect x="15" y="245" width="233" height="1" fill="#DDDDDD"/>
<rect x="15" y="308" width="233" height="1" fill="#DDDDDD"/>
</svg>
